<svg width="130" height="67" viewBox="0 0 130 67" fill="none" xmlns="http://www.w3.org/2000/svg">
<g filter="url(#filter0_d_232_499)">
<path d="M8.07071 56.1656C10.4054 56.1656 12.0816 54.3697 12.0816 52.035V40.4215H23.5155C25.6107 40.4215 27.227 38.865 27.227 36.7698C27.227 34.7345 25.6705 33.1182 23.5155 33.1182H12.0816V23.2407H26.7481C28.8433 23.2407 30.4596 21.6244 30.4596 19.589C30.4596 17.4938 28.9032 15.9374 26.7481 15.9374H8.13057C5.73604 15.9374 4 17.6734 4 20.0679V52.035C4 54.3697 5.67617 56.1656 8.07071 56.1656Z" fill="#181C2E"/>
<circle cx="107.461" cy="40.7267" r="13.7391" stroke="#E8E8E8" stroke-width="0.736025" stroke-linecap="round" stroke-linejoin="round" stroke-dasharray="0.99 2.96"/>
<path d="M90.537 41.7885C90.537 49.2415 84.4952 55.2834 77.0422 55.2834C69.5892 55.2834 63.5474 49.2415 63.5474 41.7885C63.5474 34.3355 69.5892 28.2937 77.0422 28.2937C84.4952 28.2937 90.537 34.3355 90.537 41.7885ZM71.5294 41.7885C71.5294 44.8331 73.9976 47.3013 77.0422 47.3013C80.0868 47.3013 82.555 44.8331 82.555 41.7885C82.555 38.7439 80.0868 36.2758 77.0422 36.2758C73.9976 36.2758 71.5294 38.7439 71.5294 41.7885Z" fill="#FF7622"/>
<path d="M59.4989 41.7885C59.4989 49.2415 53.4571 55.2834 46.0041 55.2834C38.5511 55.2834 32.5093 49.2415 32.5093 41.7885C32.5093 34.3355 38.5511 28.2937 46.0041 28.2937C53.4571 28.2937 59.4989 34.3355 59.4989 41.7885ZM40.4914 41.7885C40.4914 44.8331 42.9595 47.3013 46.0041 47.3013C49.0487 47.3013 51.5169 44.8331 51.5169 41.7885C51.5169 38.7439 49.0487 36.2758 46.0041 36.2758C42.9595 36.2758 40.4914 38.7439 40.4914 41.7885Z" fill="#FF7622"/>
<path fill-rule="evenodd" clip-rule="evenodd" d="M26.4985 51.2409C26.4985 50.9957 26.6973 50.797 26.9424 50.797H33.7017C33.9469 50.797 34.1456 50.9957 34.1456 51.2409C34.1456 51.4861 33.9469 51.6848 33.7017 51.6848H26.9424C26.6973 51.6848 26.4985 51.4861 26.4985 51.2409Z" fill="#FF7622"/>
<path fill-rule="evenodd" clip-rule="evenodd" d="M57.5771 51.2409C57.5771 50.9957 57.7759 50.797 58.0211 50.797H64.7803C65.0255 50.797 65.2242 50.9957 65.2242 51.2409C65.2242 51.4861 65.0255 51.6848 64.7803 51.6848H58.0211C57.7759 51.6848 57.5771 51.4861 57.5771 51.2409Z" fill="#FF7622"/>
<path fill-rule="evenodd" clip-rule="evenodd" d="M21.1006 54.8394C21.1006 54.5943 21.2993 54.3955 21.5445 54.3955L33.7017 54.3955C33.9468 54.3955 34.1456 54.5943 34.1456 54.8394C34.1456 55.0846 33.9468 55.2833 33.7017 55.2833L21.5445 55.2833C21.2993 55.2833 21.1006 55.0846 21.1006 54.8394Z" fill="#FF7622"/>
<path fill-rule="evenodd" clip-rule="evenodd" d="M52.1797 54.8394C52.1797 54.5943 52.3784 54.3955 52.6236 54.3955L64.7808 54.3955C65.026 54.3955 65.2247 54.5943 65.2247 54.8394C65.2247 55.0846 65.026 55.2833 64.7808 55.2833L52.6236 55.2833C52.3784 55.2833 52.1797 55.0846 52.1797 54.8394Z" fill="#FF7622"/>
<path fill-rule="evenodd" clip-rule="evenodd" d="M26.4985 58.438C26.4985 58.1929 26.6973 57.9941 26.9424 57.9941L39.0996 57.9941C39.3448 57.9941 39.5435 58.1929 39.5435 58.4381C39.5435 58.6832 39.3448 58.882 39.0996 58.882L26.9424 58.882C26.6973 58.882 26.4985 58.6832 26.4985 58.438Z" fill="#FF7622"/>
<path fill-rule="evenodd" clip-rule="evenodd" d="M57.5771 58.438C57.5771 58.1929 57.7759 57.9941 58.0211 57.9941L70.1782 57.9941C70.4234 57.9941 70.6222 58.1929 70.6222 58.4381C70.6222 58.6832 70.4234 58.882 70.1782 58.882L58.0211 58.882C57.7759 58.882 57.5771 58.6832 57.5771 58.438Z" fill="#FF7622"/>
<path d="M81.4543 26.7422C82.5382 26.7422 83.4264 25.8615 83.3269 24.7821C82.8713 19.84 80.7035 15.1874 77.1653 11.6492C73.1624 7.64627 67.7332 5.39746 62.0723 5.39746C56.4113 5.39746 50.9822 7.64627 46.9793 11.6492C43.441 15.1874 41.2733 19.84 40.8177 24.7821C40.7182 25.8615 41.6063 26.7422 42.6903 26.7422L62.0723 26.7422H81.4543Z" fill="#FF7622"/>
<path d="M64.7711 3.92542C64.7711 5.5514 63.5628 6.86952 62.0723 6.86952C60.5818 6.86952 59.3735 5.5514 59.3735 3.92542C59.3735 2.29944 60.5818 0.981323 62.0723 0.981323C63.5628 0.981323 64.7711 2.29944 64.7711 3.92542Z" fill="white"/>
<path fill-rule="evenodd" clip-rule="evenodd" d="M62.0722 1.96273C61.2024 1.96273 60.3548 2.75935 60.3548 3.92547C60.3548 5.09158 61.2024 5.8882 62.0722 5.8882C62.9421 5.8882 63.7896 5.09158 63.7896 3.92547C63.7896 2.75935 62.9421 1.96273 62.0722 1.96273ZM58.3921 3.92547C58.3921 1.83962 59.9611 0 62.0722 0C64.1833 0 65.7523 1.83962 65.7523 3.92547C65.7523 6.01131 64.1833 7.85093 62.0722 7.85093C59.9611 7.85093 58.3921 6.01131 58.3921 3.92547Z" fill="#FF7622"/>
<path d="M53.3568 12.0222C53.1187 11.6268 52.6056 11.4947 52.2186 11.7462C49.2927 13.6475 46.9963 16.3541 45.6145 19.5294C45.426 19.9627 45.6532 20.4572 46.0967 20.6203C46.5345 20.7814 47.0182 20.5583 47.2061 20.1313C48.446 17.3144 50.4829 14.9088 53.0723 13.2035C53.4644 12.9452 53.599 12.4244 53.3568 12.0222Z" fill="white"/>
<path d="M56.767 10.4994C56.6217 10.0611 56.1492 9.82009 55.7167 9.98201C55.2534 10.1555 54.7976 10.3478 54.3504 10.5586C53.9261 10.7586 53.7719 11.2764 53.9964 11.6882C54.2174 12.0934 54.7224 12.2432 55.1406 12.048C55.4992 11.8807 55.864 11.7263 56.2341 11.5854C56.6707 11.4191 56.9141 10.9428 56.767 10.4994Z" fill="white"/>
<rect x="115.802" y="15.2112" width="9.32298" height="40.236" rx="4.66149" fill="#181C2E"/>
<path d="M122.181 40.9721C122.181 48.9665 115.701 55.4473 107.706 55.4473C99.7117 55.4473 93.231 48.9665 93.231 40.9721C93.231 32.9777 99.7117 26.4969 107.706 26.4969C115.701 26.4969 122.181 32.9777 122.181 40.9721ZM101.793 40.9721C101.793 44.2379 104.44 46.8853 107.706 46.8853C110.972 46.8853 113.619 44.2379 113.619 40.9721C113.619 37.7063 110.972 35.0589 107.706 35.0589C104.44 35.0589 101.793 37.7063 101.793 40.9721Z" fill="#181C2E"/>
</g>
<defs>
<filter id="filter0_d_232_499" x="0" y="0" width="129.125" height="66.882" filterUnits="userSpaceOnUse" color-interpolation-filters="sRGB">
<feFlood flood-opacity="0" result="BackgroundImageFix"/>
<feColorMatrix in="SourceAlpha" type="matrix" values="0 0 0 0 0 0 0 0 0 0 0 0 0 0 0 0 0 0 127 0" result="hardAlpha"/>
<feOffset dy="4"/>
<feGaussianBlur stdDeviation="2"/>
<feComposite in2="hardAlpha" operator="out"/>
<feColorMatrix type="matrix" values="0 0 0 0 0 0 0 0 0 0 0 0 0 0 0 0 0 0 0.25 0"/>
<feBlend mode="normal" in2="BackgroundImageFix" result="effect1_dropShadow_232_499"/>
<feBlend mode="normal" in="SourceGraphic" in2="effect1_dropShadow_232_499" result="shape"/>
</filter>
</defs>
</svg>
